# xmcd
#
# Track frame offsets: 
#        150
#        12295
#        36140
#        55447
#        81407
#        109532
#        140732
#        157632
#        186260
#        208250
#        229880
#        256940
#
# Disc length: 3516 seconds
#
# Revision: 0
# Processed by: cddbd v1.4PL0 Copyright (c) Steve Scherf et al.
# Submitted via: ExactAudioCopy v0.90b4
#
DISCID=a20dba0c
DTITLE=Maxwell - Maxwell's Urban Hangsuite
DYEAR=1996
DGENRE=R&B
TTITLE0=The Urban Theme
TTITLE1=Welcome
TTITLE2=Sumthin' Sumthin'
TTITLE3=Ascension (Don't Ever Wonder)
TTITLE4=Dancewitme
TTITLE5=Til The Cops Come Knockin'
TTITLE6=Whenever Wherever Whatever
TTITLE7=Lonely's The Only Company (I and II)
TTITLE8=Reunion
TTITLE9=Suitelady (The Proposal Jam)
TTITLE10=The Suite Theme
TTITLE11=(reprise) ...Til The Cops Come Knockin'
EXTD=
EXTT0=
EXTT1=
EXTT2=
EXTT3=
EXTT4=
EXTT5=
EXTT6=
EXTT7=
EXTT8=
EXTT9=
EXTT10=
EXTT11=
PLAYORDER=
